<?xml version="1.0" encoding="UTF-8"?>
<!DOCTYPE svg PUBLIC "-//W3C//DTD SVG 1.1//EN" "http://www.w3.org/Graphics/SVG/1.1/DTD/svg11.dtd">
<!-- Creator: CorelDRAW -->
<svg xmlns="http://www.w3.org/2000/svg" xml:space="preserve" width="48mm" height="48mm" version="1.1" style="shape-rendering:geometricPrecision; text-rendering:geometricPrecision; image-rendering:optimizeQuality; fill-rule:evenodd; clip-rule:evenodd"
viewBox="0 0 1289.41 1289.41"
 xmlns:xlink="http://www.w3.org/1999/xlink"
 xmlns:xodm="http://www.corel.com/coreldraw/odm/2003">
 <defs>
  <style type="text/css">
   <![CDATA[
    .fil0 {fill:#DBDBDB}
   ]]>
  </style>
 </defs>
 <g id="Слой_x0020_1">
  <metadata id="CorelCorpID_0Corel-Layer"/>
  <g id="_2404482510128">
   <path class="fil0" d="M548.02 742.1c0,-74.33 -56.48,-73.59 -56.48,-73.59l-155.98 0 0 143.19 148.09 0c22.18,-0.48 64.37,-6.93 64.37,-69.61z"/>
   <path class="fil0" d="M335.56 585.92l146.3 0c25.28,0 47.58,-8.08 47.58,-63.83 0,-55.75 -37.9,-55.75 -37.9,-55.75l-20.07 0 -135.9 0 0 119.58z"/>
   <path class="fil0" d="M890.86 585.92c-82.78,0 -94.29,82.59 -94.29,82.59l176.02 0c0,0 1.03,-82.59 -81.73,-82.59z"/>
   <path class="fil0" d="M1075.25 740.04l-277.66 0c0,99.54 94.31,93.22 94.31,93.22 89.05,0 85.91,-57.6 85.91,-57.6l94.29 0c0,152.96 -183.35,142.49 -183.35,142.49 -220.02,0 -205.88,-204.83 -205.88,-204.83 0,0 -0.18,-205.88 205.88,-205.88 216.87,0 186.49,232.6 186.49,232.6zm-432.09 -226.25c0,95.88 -81.76,101.95 -81.76,101.95 107.77,0 100.35,133.05 100.35,133.04 0,163.53 -170.21,158.15 -170.21,158.15l-278.83 0 0 -535.83 278.83 0c84.73,0 151.63,46.79 151.63,142.68zm351.38 -45.13l-221.07 0 0 -65.98 221.07 0 0 65.98zm294.86 176.05c0,-356.06 -288.65,-644.71 -644.71,-644.71 -356.06,0 -644.71,288.64 -644.71,644.71 0,356.06 288.65,644.71 644.71,644.71 356.06,0 644.71,-288.64 644.71,-644.71z"/>
  </g>
 </g>
</svg>
