<?xml version="1.0" encoding="UTF-8"?>
<!DOCTYPE svg PUBLIC "-//W3C//DTD SVG 1.1//EN" "http://www.w3.org/Graphics/SVG/1.1/DTD/svg11.dtd">
<!-- Creator: CorelDRAW 2021.5 -->
<svg xmlns="http://www.w3.org/2000/svg" xml:space="preserve" width="183px" height="183px" version="1.1" style="shape-rendering:geometricPrecision; text-rendering:geometricPrecision; image-rendering:optimizeQuality; fill-rule:evenodd; clip-rule:evenodd"
viewBox="0 0 0.8 0.8"
 xmlns:xlink="http://www.w3.org/1999/xlink"
 xmlns:xodm="http://www.corel.com/coreldraw/odm/2003">
 <defs>
  <style type="text/css">
   <![CDATA[
    .fil0 {fill:#DBDBDB}
   ]]>
  </style>
 </defs>
 <g id="Слой_x0020_1">
  <metadata id="CorelCorpID_0Corel-Layer"/>
  <g id="_2383999486160">
   <path class="fil0" d="M0.62 0.48c-0.03,0.1 -0.21,0.08 -0.18,-0.07 0.02,-0.11 0.19,-0.11 0.18,0.04l-0.13 0c0,0.03 0.01,0.04 0.03,0.05 0.03,0.01 0.04,-0.01 0.05,-0.03 0.01,0.01 0.04,0.01 0.05,0.01zm-0.44 -0.22c0.04,0 0.14,0 0.18,0.01 0.04,0.03 0.05,0.1 0,0.12 0,0 0,0 0,0l0.01 0.01c0,0 0,0 0.01,0 0.01,0.01 0.02,0.03 0.03,0.05 0.01,0.11 -0.15,0.09 -0.23,0.09l0 -0.28zm0.29 0.01l0.12 0 0 0.05 -0.12 0 0 -0.05zm-0.47 0.11c0,0.08 0,0.12 0.04,0.2 0.02,0.03 0.06,0.09 0.08,0.11 0.01,0.01 0.01,0.01 0.01,0.01 0.01,0.01 0.01,0.01 0.02,0.01 0.11,0.09 0.28,0.12 0.41,0.06 0.05,-0.03 0.08,-0.04 0.12,-0.08 0.13,-0.13 0.15,-0.29 0.08,-0.46 -0.03,-0.08 -0.11,-0.15 -0.19,-0.19 -0.05,-0.02 -0.1,-0.04 -0.16,-0.04l-0.09 0.01c-0.03,0 -0.05,0.01 -0.07,0.02 -0.07,0.03 -0.13,0.08 -0.17,0.13 -0.04,0.06 -0.08,0.14 -0.08,0.22z"/>
   <path class="fil0" d="M0.23 0.49c0.04,0 0.12,0.01 0.12,-0.04 0,-0.05 -0.1,-0.03 -0.12,-0.03l0 0.07z"/>
   <path class="fil0" d="M0.23 0.37c0.04,0 0.11,0.01 0.11,-0.03 0,-0.04 -0.07,-0.03 -0.11,-0.03l0 0.06z"/>
   <path class="fil0" d="M0.49 0.42l0.08 0c0,-0.06 -0.08,-0.06 -0.08,0z"/>
  </g>
 </g>
</svg>
