<?xml version="1.0" encoding="UTF-8"?>
<!DOCTYPE svg PUBLIC "-//W3C//DTD SVG 1.1//EN" "http://www.w3.org/Graphics/SVG/1.1/DTD/svg11.dtd">
<!-- Creator: CorelDRAW 2021.5 -->
<svg xmlns="http://www.w3.org/2000/svg" xml:space="preserve" width="3020px" height="2934px" version="1.1" style="shape-rendering:geometricPrecision; text-rendering:geometricPrecision; image-rendering:optimizeQuality; fill-rule:evenodd; clip-rule:evenodd"
viewBox="0 0 257 250"
 xmlns:xlink="http://www.w3.org/1999/xlink"
 xmlns:xodm="http://www.corel.com/coreldraw/odm/2003">
 <defs>
  <style type="text/css">
   <![CDATA[
    .fil0 {fill:#DBDBDB}
   ]]>
  </style>
 </defs>
 <g id="Слой_x0020_1">
  <metadata id="CorelCorpID_0Corel-Layer"/>
  <path class="fil0" d="M135 79c5,-1 10,1 14,4 10,10 4,32 1,43 -5,15 -14,37 -32,40 -12,2 -17,-6 -19,-17 -2,-9 1,-23 4,-32 3,-9 6,-17 11,-25 6,-9 12,-12 22,-14zm74 119c-4,1 -17,12 -39,17 -32,7 -65,7 -93,-10 -40,-24 -50,-78 -32,-119 14,-34 48,-53 84,-56 7,-1 19,-1 27,0 16,3 28,5 41,15 24,18 34,52 25,81 -2,7 -4,13 -8,20 -4,6 -8,11 -13,15 -5,3 -15,9 -21,6 -7,-3 -2,-16 -1,-21 1,-3 2,-8 3,-11 5,-18 10,-37 15,-55 1,-3 6,-20 6,-22l-34 0c-2,2 -2,8 -3,9 -1,0 -2,-2 -2,-3 -2,-3 -6,-6 -9,-8 -10,-6 -28,-5 -39,-1 -16,6 -28,18 -37,31 -15,24 -22,64 -6,90 15,23 51,26 71,7 1,-1 5,-5 6,-6 1,1 1,5 2,7 2,5 9,10 14,11 7,2 17,2 24,1 1,0 1,0 2,0l1 0c25,-5 47,-26 58,-49 3,-7 4,-10 6,-16 4,-13 4,-29 3,-42 -1,-10 -4,-18 -7,-26 -3,-7 -13,-24 -20,-29 0,0 -1,-1 -1,-1 -22,-23 -55,-32 -86,-32 -28,0 -57,5 -82,20 -13,8 -25,19 -36,32 -33,43 -33,112 1,154 10,13 24,24 38,30 4,2 8,3 12,5 1,0 0,0 1,0 10,4 28,7 38,8 26,2 51,-1 75,-8 1,0 2,-1 3,-1l9 -3c5,-2 22,-10 25,-13 0,-2 -13,-19 -16,-24l-1 -1z"/>
 </g>
</svg>
