<?xml version="1.0" encoding="UTF-8"?>
<!DOCTYPE svg PUBLIC "-//W3C//DTD SVG 1.1//EN" "http://www.w3.org/Graphics/SVG/1.1/DTD/svg11.dtd">
<!-- Creator: CorelDRAW 2021.5 -->
<svg xmlns="http://www.w3.org/2000/svg" xml:space="preserve" width="183px" height="183px" version="1.1" style="shape-rendering:geometricPrecision; text-rendering:geometricPrecision; image-rendering:optimizeQuality; fill-rule:evenodd; clip-rule:evenodd"
viewBox="0 0 0.83 0.84"
 xmlns:xlink="http://www.w3.org/1999/xlink"
 xmlns:xodm="http://www.corel.com/coreldraw/odm/2003">
 <defs>
  <style type="text/css">
   <![CDATA[
    .fil0 {fill:#DBDBDB}
   ]]>
  </style>
 </defs>
 <g id="Слой_x0020_1">
  <metadata id="CorelCorpID_0Corel-Layer"/>
  <path class="fil0" d="M0.34 0.3c0,-0.07 -0.01,-0.11 0.05,-0.14 0.05,-0.03 0.11,-0.02 0.16,-0.01l-0.01 0.07c-0.03,0.01 -0.06,-0.01 -0.08,0.01 -0.02,0.01 -0.02,0.05 -0.01,0.07l0.07 0 0 0.08 -0.07 0 -0.01 0.32 -0.1 0 0 -0.32 -0.06 0 0 -0.08 0.06 0zm-0.34 0.1c0,0.1 0.01,0.16 0.06,0.23 0.01,0.01 0.01,0.02 0.02,0.03 0.07,0.1 0.17,0.16 0.29,0.17 0.01,0 0.04,0.01 0.05,0.01 0.03,-0.01 0.06,-0.01 0.09,-0.02 0.04,-0.01 0.04,-0.01 0.08,-0.02 0.04,-0.02 0.11,-0.07 0.13,-0.1 0.01,-0.01 0.01,-0.01 0.02,-0.01 0.05,-0.07 0.09,-0.17 0.09,-0.27 0,-0.09 -0.02,-0.17 -0.07,-0.24 -0.03,-0.04 -0.08,-0.09 -0.13,-0.12 -0.06,-0.03 -0.09,-0.04 -0.16,-0.05 -0.01,-0.01 -0.03,-0.01 -0.05,-0.01 -0.04,-0.01 -0.13,0.02 -0.17,0.03 -0.14,0.06 -0.25,0.22 -0.25,0.37z"/>
 </g>
</svg>
