<?xml version="1.0" encoding="UTF-8"?>
<!DOCTYPE svg PUBLIC "-//W3C//DTD SVG 1.1//EN" "http://www.w3.org/Graphics/SVG/1.1/DTD/svg11.dtd">
<!-- Creator: CorelDRAW -->
<svg xmlns="http://www.w3.org/2000/svg" xml:space="preserve" width="48mm" height="48mm" version="1.1" style="shape-rendering:geometricPrecision; text-rendering:geometricPrecision; image-rendering:optimizeQuality; fill-rule:evenodd; clip-rule:evenodd"
viewBox="0 0 4683.96 4683.96"
 xmlns:xlink="http://www.w3.org/1999/xlink"
 xmlns:xodm="http://www.corel.com/coreldraw/odm/2003">
 <defs>
  <style type="text/css">
   <![CDATA[
    .fil0 {fill:#DBDBDB}
   ]]>
  </style>
 </defs>
 <g id="Слой_x0020_1">
  <metadata id="CorelCorpID_0Corel-Layer"/>
  <path class="fil0" d="M1868.34 2806.27c-122.17,-118.84 -197.74,-283 -197.74,-464.31 0,-181.3 75.57,-345.47 197.74,-464.31 121.51,-118.18 289,-191.29 473.65,-191.29 184.65,0 352.13,73.11 473.64,191.29 122.17,118.84 197.74,283.01 197.74,464.31 0,181.31 -75.57,345.47 -197.74,464.31 -121.51,118.19 -288.99,191.3 -473.64,191.3 -184.65,0 -352.14,-73.11 -473.65,-191.3zm1092.29 -1683.36l-1237.3 0c-165.01,0 -315.09,67.59 -423.97,176.45 -108.85,108.87 -176.44,258.95 -176.44,423.97l0 1237.3c0,165.01 67.59,315.09 176.44,423.97 108.87,108.85 258.95,176.44 423.97,176.44l1237.3 0c165.01,0 315.09,-67.59 423.97,-176.44 108.86,-108.87 176.45,-258.95 176.45,-423.97l0 -1237.3c0,-165.01 -67.59,-315.09 -176.45,-423.97 -108.87,-108.86 -258.95,-176.45 -423.97,-176.45zm93.44 644.75c-88.96,0 -161.07,-72.13 -161.07,-161.09 0,-88.96 72.11,-161.09 161.07,-161.09 88.97,0 161.09,72.13 161.09,161.09 0,88.96 -72.12,161.09 -161.09,161.09z"/>
  <path class="fil0" d="M1858.14 2341.97c0,128.99 53.73,245.75 140.61,330.24 87.55,85.15 208.88,137.83 343.24,137.83 134.36,0 255.68,-52.67 343.23,-137.83 86.88,-84.49 140.61,-201.24 140.61,-330.24 0,-128.98 -53.73,-245.74 -140.61,-330.23 -87.55,-85.15 -208.87,-137.83 -343.23,-137.83 -134.36,0 -255.69,52.67 -343.24,137.83 -86.88,84.49 -140.61,201.24 -140.61,330.23z"/>
  <path class="fil0" d="M935.38 2960.62l0 -1237.3c0,-216.79 88.61,-413.81 231.4,-556.56 142.75,-142.78 339.77,-231.4 556.56,-231.4l1237.3 0c216.78,0 413.81,88.61 556.56,231.4 142.78,142.75 231.4,339.77 231.4,556.56l0 1237.3c0,216.79 -88.61,413.81 -231.4,556.56 -142.75,142.78 -339.78,231.4 -556.56,231.4l-1237.3 0c-216.79,0 -413.81,-88.61 -556.56,-231.4 -142.78,-142.75 -231.4,-339.77 -231.4,-556.56zm3748.58 -618.64c0,-1293.44 -1048.54,-2341.98 -2341.98,-2341.98 -1293.44,0 -2341.98,1048.53 -2341.98,2341.98 0,1293.44 1048.54,2341.98 2341.98,2341.98 1293.44,0 2341.98,-1048.53 2341.98,-2341.98z"/>
 </g>
</svg>
