<?xml version="1.0" encoding="UTF-8"?>
<!DOCTYPE svg PUBLIC "-//W3C//DTD SVG 1.1//EN" "http://www.w3.org/Graphics/SVG/1.1/DTD/svg11.dtd">
<!-- Creator: CorelDRAW 2021.5 -->
<svg xmlns="http://www.w3.org/2000/svg" xml:space="preserve" width="183px" height="183px" version="1.1" style="shape-rendering:geometricPrecision; text-rendering:geometricPrecision; image-rendering:optimizeQuality; fill-rule:evenodd; clip-rule:evenodd"
viewBox="0 0 0.82 0.82"
 xmlns:xlink="http://www.w3.org/1999/xlink"
 xmlns:xodm="http://www.corel.com/coreldraw/odm/2003">
 <defs>
  <style type="text/css">
   <![CDATA[
    .fil0 {fill:#DBDBDB}
   ]]>
  </style>
 </defs>
 <g id="Слой_x0020_1">
  <metadata id="CorelCorpID_0Corel-Layer"/>
  <g id="_2383859299472">
   <path class="fil0" d="M0.23 0.19c0.02,0 0.29,0 0.34,0 0.03,0 0.06,0.01 0.06,0.04 0.01,0.02 0.01,0.29 0.01,0.34 0,0.03 -0.01,0.06 -0.05,0.06 -0.02,0.01 -0.29,0.01 -0.33,0.01 -0.09,0 -0.07,-0.06 -0.07,-0.16l0 -0.22c0,-0.04 0.01,-0.06 0.04,-0.07zm-0.18 0.03l-0.01 0.01c0,0.01 -0.01,0.03 -0.02,0.04 -0.04,0.12 -0.02,0.26 0.05,0.37 0.13,0.19 0.39,0.25 0.59,0.1 0.05,-0.03 0.07,-0.06 0.1,-0.11 0.15,-0.23 0.02,-0.57 -0.27,-0.62 -0.08,-0.02 -0.16,-0.01 -0.23,0.02 -0.03,0.01 -0.06,0.03 -0.09,0.05 -0.04,0.03 -0.08,0.07 -0.1,0.11 -0.01,0.01 -0.02,0.02 -0.02,0.03z"/>
   <path class="fil0" d="M0.55 0.38c-0.01,0.04 0.01,0.07 -0.03,0.12 -0.07,0.08 -0.21,0.06 -0.24,-0.05 -0.01,-0.02 0,-0.06 -0.01,-0.07 0,0 -0.02,-0.01 -0.03,0 -0.01,0.01 0,0.15 0,0.17 0,0.03 0,0.03 0.03,0.03l0.28 0c0.03,0 0.03,0 0.03,-0.03 0,-0.03 0.01,-0.15 0,-0.17l-0.03 0z"/>
   <path class="fil0" d="M0.39 0.33c-0.11,0.03 -0.07,0.19 0.04,0.17 0.04,-0.01 0.08,-0.06 0.07,-0.11 -0.01,-0.04 -0.06,-0.07 -0.11,-0.06z"/>
   <path class="fil0" d="M0.58 0.24c-0.02,0 -0.07,-0.01 -0.08,0.01 -0.01,0.01 -0.01,0.07 0.01,0.07 0.01,0.01 0.06,0.01 0.07,0 0.01,-0.02 0,-0.07 0,-0.08z"/>
   <polygon class="fil0" points="0.04,0.23 0.05,0.22 0.04,0.22 "/>
  </g>
 </g>
</svg>
