<?xml version="1.0" encoding="UTF-8"?>
<!DOCTYPE svg PUBLIC "-//W3C//DTD SVG 1.1//EN" "http://www.w3.org/Graphics/SVG/1.1/DTD/svg11.dtd">
<!-- Creator: CorelDRAW 2021.5 -->
<svg xmlns="http://www.w3.org/2000/svg" xml:space="preserve" width="2483px" height="3556px" version="1.1" style="shape-rendering:geometricPrecision; text-rendering:geometricPrecision; image-rendering:optimizeQuality; fill-rule:evenodd; clip-rule:evenodd"
viewBox="0 0 236.68 338.94"
 xmlns:xlink="http://www.w3.org/1999/xlink"
 xmlns:xodm="http://www.corel.com/coreldraw/odm/2003">
 <defs>
  <style type="text/css">
   <![CDATA[
    .fil0 {fill:#DBDBDB}
   ]]>
  </style>
 </defs>
 <g id="Слой_x0020_1">
  <metadata id="CorelCorpID_0Corel-Layer"/>
  <path class="fil0" d="M76.57 123.58c-5.46,-56.77 78.75,-63.59 84.05,-9.37 5.58,57.04 -78.92,62.76 -84.05,9.37zm34.97 -123.32c-36.68,2.31 -71.19,21.69 -91.53,52.46 -24.2,36.61 -24.71,75.6 -10.81,114.8 12.13,34.21 29.63,63.92 49.79,94.39 15.8,23.88 35.7,49.36 54.48,71.42 5.39,6.34 3.92,7.66 8.53,2.11 42.32,-50.86 91.2,-114.79 109.52,-178.85 22.99,-80.42 -33.25,-161.79 -119.98,-156.33z"/>
 </g>
</svg>
