<?xml version="1.0" encoding="UTF-8"?>
<!DOCTYPE svg PUBLIC "-//W3C//DTD SVG 1.1//EN" "http://www.w3.org/Graphics/SVG/1.1/DTD/svg11.dtd">
<!-- Creator: CorelDRAW 2021.5 -->
<svg xmlns="http://www.w3.org/2000/svg" xml:space="preserve" width="2715px" height="3368px" version="1.1" style="shape-rendering:geometricPrecision; text-rendering:geometricPrecision; image-rendering:optimizeQuality; fill-rule:evenodd; clip-rule:evenodd"
viewBox="0 0 597 741"
 xmlns:xlink="http://www.w3.org/1999/xlink"
 xmlns:xodm="http://www.corel.com/coreldraw/odm/2003">
 <defs>
  <style type="text/css">
   <![CDATA[
    .fil0 {fill:#DBDBDB}
   ]]>
  </style>
 </defs>
 <g id="Слой_x0020_1">
  <metadata id="CorelCorpID_0Corel-Layer"/>
  <path class="fil0" d="M231 182c11,-31 -31,-104 -49,-130 -29,-43 -58,-73 -108,-32 -78,64 -85,184 -62,276 23,91 70,159 127,234 53,69 113,131 189,171 44,23 89,41 140,41 48,0 95,-17 122,-58 26,-38 -26,-89 -53,-113 -29,-25 -79,-73 -119,-46 -48,31 -85,32 -131,-3 -41,-31 -55,-60 -82,-97 -10,-14 -24,-44 -31,-60 -10,-23 -18,-47 -13,-72 5,-25 20,-37 33,-57 5,-8 35,-48 36,-52z"/>
 </g>
</svg>
