<?xml version="1.0" encoding="UTF-8"?>
<!DOCTYPE svg PUBLIC "-//W3C//DTD SVG 1.1//EN" "http://www.w3.org/Graphics/SVG/1.1/DTD/svg11.dtd">
<!-- Creator: CorelDRAW -->
<svg xmlns="http://www.w3.org/2000/svg" xml:space="preserve" width="48mm" height="48mm" version="1.1" style="shape-rendering:geometricPrecision; text-rendering:geometricPrecision; image-rendering:optimizeQuality; fill-rule:evenodd; clip-rule:evenodd"
viewBox="0 0 1802.44 1802.44"
 xmlns:xlink="http://www.w3.org/1999/xlink"
 xmlns:xodm="http://www.corel.com/coreldraw/odm/2003">
 <defs>
  <style type="text/css">
   <![CDATA[
    .fil0 {fill:#DBDBDB}
   ]]>
  </style>
 </defs>
 <g id="Слой_x0020_1">
  <metadata id="CorelCorpID_0Corel-Layer"/>
  <path class="fil0" d="M1229.63 1117.58c-17.49,17.6 -38.67,32.14 -59.78,44.79 -22.24,13.33 -46.15,23.93 -73.46,32.3 -24.48,7.51 -58.45,14.11 -90.46,14.11 -47.16,0 -80.41,-6.7 -117.26,-26.54l-28.75 -18.78c-18.62,-13.82 -35.73,-39.39 -37,-40.24 -0.22,10.01 -42.36,167.06 -46.83,184.89 -5.6,22.3 -11.91,38.67 -19.53,57.71 -3.73,9.32 -8.01,17.84 -12.46,26.75 -6.29,12.58 -32.62,64.23 -41.84,73.43 -11.97,11.94 -39.66,21.82 -56.3,16 -17.98,-6.3 -27.42,-29.69 -27.42,-48.63 0,-46.32 -0.47,-95.25 7.81,-139.54 2.54,-13.58 5.28,-23.89 8.13,-37.02 2.66,-12.22 5.9,-24.96 8.77,-36.39 15.11,-60.15 28.37,-121.27 43.03,-181.56 2.99,-12.29 5.39,-24.16 8.55,-36.61l25.75 -108.66c1.87,-7.27 -6.26,-20.66 -9.62,-32.74 -8.63,-31.03 -11.63,-61.07 -11.63,-96.51 0,-55.93 26.05,-120.01 72.71,-151.89 13.72,-9.38 28.61,-15.57 45.76,-18.42 11.88,-1.98 17.41,-1.09 28.89,-0.82 17.19,0.41 37.27,8.91 47.18,16.99 12.11,9.89 21.82,21.2 27.87,36.3 5.94,14.81 10.51,32.51 10.51,53.66 0,53.01 -27.17,125.94 -42.35,177.49l-16.3 56.19c-10.2,34.59 -10.23,71.85 10.17,102.39 24.66,36.94 66.22,52.26 111.41,48.89 48.87,-3.65 90.03,-34.04 116.36,-66.65l16.1 -20.74c10.56,-15.28 17.84,-28.83 26.45,-46.04 43.68,-87.35 73.23,-254.32 26.53,-358.47 -7.13,-15.89 -16.22,-32 -26.13,-45.17 -20.49,-27.23 -44.44,-50.33 -74.49,-66.93l-36.05 -17.43c-37.39,-16.47 -84.04,-23.78 -133.08,-23.78 -127.13,0 -228.93,56.78 -287.35,142.82 -45.22,66.6 -74.09,164.53 -55.58,246.45 16.48,72.9 54.16,92.2 54.16,111.02 0,19.11 -7.68,37.68 -12.12,55.61 -3.92,15.8 -7.32,38.27 -27.09,38.27 -18.97,0 -40.62,-15.47 -55.84,-26.15 -2.3,-1.61 -5.14,-3.68 -7.41,-5.67 -2.75,-2.42 -4.53,-3.61 -7.15,-5.92 -16.14,-14.23 -30.21,-31.75 -41.55,-49.95 -1.83,-2.93 -2.93,-5.35 -4.74,-8.33 -23.11,-38.15 -41.36,-105.27 -41.36,-166.6l0 -20.2c0,-35.1 7.48,-72.08 15.59,-99.68 4.25,-14.47 8.82,-28.66 14.62,-42.42 6.01,-14.27 11.48,-25.53 18.11,-38.93l21.07 -35.97c20.98,-31.34 44.62,-59.1 71.7,-85.16l23.78 -20.19c15.05,-13.44 33.08,-24.98 50.28,-35.28 37.48,-22.43 76.44,-38.62 118.92,-52.21 14.41,-4.61 29.89,-7.9 45.72,-11.32 47.92,-10.33 94.95,-11.41 144.26,-11.41 60.6,0 118.25,14.65 171.12,35.65 47.51,18.87 80.5,42.18 119.84,73.86l20.09 17.94c17.09,17.27 33.62,35.86 47.1,56.28l24.87 40.48c1.73,3.23 2.79,4.45 4.38,7.5 12.33,23.61 21.05,48.91 28.65,74.74 18.86,64.1 13.43,145.18 4.41,210.28 -3.94,28.45 -11.52,58.46 -20.14,85.62 -16.64,52.42 -40.32,100.43 -69.79,140.55 -15.35,20.89 -31.22,37.27 -49.8,55.97zm572.81 -216.36c0,-497.73 -403.49,-901.22 -901.22,-901.22 -497.73,0 -901.22,403.49 -901.22,901.22 0,497.73 403.49,901.22 901.22,901.22 497.73,0 901.22,-403.49 901.22,-901.22z"/>
 </g>
</svg>
