<?xml version="1.0" encoding="UTF-8"?>
<!DOCTYPE svg PUBLIC "-//W3C//DTD SVG 1.1//EN" "http://www.w3.org/Graphics/SVG/1.1/DTD/svg11.dtd">
<!-- Creator: CorelDRAW -->
<svg xmlns="http://www.w3.org/2000/svg" xml:space="preserve" width="48mm" height="48mm" version="1.1" style="shape-rendering:geometricPrecision; text-rendering:geometricPrecision; image-rendering:optimizeQuality; fill-rule:evenodd; clip-rule:evenodd"
viewBox="0 0 11894.44 11894.44"
 xmlns:xlink="http://www.w3.org/1999/xlink"
 xmlns:xodm="http://www.corel.com/coreldraw/odm/2003">
 <defs>
  <style type="text/css">
   <![CDATA[
    .fil0 {fill:#DBDBDB}
   ]]>
  </style>
 </defs>
 <g id="Слой_x0020_1">
  <metadata id="CorelCorpID_0Corel-Layer"/>
  <path class="fil0" d="M9443.91 8120.08l-1025.75 15.98c-64.16,13.23 -138.92,6.57 -224.28,-20.07 -85.52,-26.74 -155.02,-56.13 -208.55,-88.12l-79.99 -48.12c-80.11,-56.15 -173.66,-141.64 -280.56,-256.57 -106.73,-114.73 -198.22,-218.29 -274.41,-310.49 -76.2,-92.06 -157.68,-169.59 -244.51,-232.41 -86.78,-62.84 -162.28,-83.48 -226.42,-62.1 -8,2.78 -18.61,7.26 -32.02,13.98 -13.36,6.67 -36.2,26.17 -68.22,58.16 -31.97,31.99 -60.61,71.42 -86.09,118.1 -25.45,46.81 -48.12,116.34 -68.19,208.4 -19.95,92.21 -28.65,195.59 -25.9,310.49 0,40.02 -4.78,76.82 -14.12,110.25 -9.29,33.33 -19.33,58.03 -29.93,74.04l-16.01 20.07c-48.15,50.75 -118.97,80.11 -212.34,88.12l-460.88 0c-189.64,10.63 -384.69,-11.32 -584.93,-66.16 -200.42,-54.66 -376.11,-125.51 -526.92,-212.34 -150.96,-86.83 -288.54,-174.95 -412.74,-264.55 -124.37,-89.43 -218.46,-166.22 -282.59,-230.36l-100.21 -96.17c-26.59,-26.59 -63.41,-66.71 -110.07,-120.08 -46.83,-53.55 -142.26,-174.97 -286.51,-364.76 -144.29,-189.52 -285.96,-391.23 -424.83,-605.03 -138.89,-213.48 -302.52,-495.5 -490.84,-845.42 -188.18,-349.92 -362.58,-713.22 -522.83,-1089.88 -16.01,-42.62 -24.01,-78.85 -24.01,-108.21 0,-29.36 3.94,-50.75 12.07,-64.16l16.01 -23.99c39.97,-50.72 116.22,-76.2 228.32,-76.2l1097.91 -7.83c32.14,5.23 62.82,13.93 92.21,25.99 29.39,12.07 50.75,23.27 64.13,34.05l20.07 12.07c42.75,29.39 74.76,71.99 96.12,128.14 53.38,133.64 114.76,271.81 184.26,414.79 69.53,142.96 124.22,251.74 164.37,326.48l63.98 116.34c77.54,160.3 152.3,299.17 224.41,416.68 72.13,117.53 136.98,209 194.45,274.46 57.44,65.42 112.87,116.91 166.25,154.28 53.35,37.39 98.72,56.15 136.27,56.15 37.37,0 73.45,-6.84 108.19,-20.07 5.23,-2.63 11.92,-9.44 19.92,-20.07 8,-10.61 24.16,-40.02 48.17,-88.12 23.96,-48.02 42,-110.84 54.07,-188.35 12.07,-77.36 24.73,-185.58 38.11,-324.59 13.23,-138.89 13.23,-305.89 0,-500.88 -5.4,-106.78 -17.47,-204.21 -36.08,-292.33 -18.76,-88.14 -37.37,-149.67 -56.1,-184.44l-24.01 -48.12c-66.91,-90.77 -180.37,-148.21 -340.63,-172.2 -34.74,-5.25 -28.08,-37.37 20.07,-96.12 45.37,-50.8 96.15,-90.92 152.25,-120.28 141.52,-69.38 460.76,-101.55 957.58,-96.15 219.18,2.6 399.5,20.07 541.02,52.06 53.38,13.38 98.18,31.42 134.26,54.12 36.03,22.67 63.39,54.81 82.15,96.12 18.61,41.46 32.73,84.2 42.03,128.26 9.32,44.08 13.98,104.87 13.98,182.41 0,77.36 -1.31,150.94 -3.94,220.29 -2.75,69.41 -6.12,163.62 -10.04,282.47 -4.06,118.94 -5.97,229.04 -5.97,330.54 0,29.41 -1.31,85.54 -4.06,168.31 -2.75,82.89 -3.35,147.02 -2.03,192.39 1.31,45.4 6.1,99.47 14.1,162.28 8,62.87 23.27,114.93 46.12,156.39 22.55,41.31 52.63,73.99 90.03,98.15 21.51,5.23 44.08,10.63 68.19,16.01 24.01,5.38 58.75,-9.32 104.13,-44.08 45.52,-34.77 96.15,-80.86 152.3,-138.3 55.98,-57.32 125.51,-146.9 208.25,-268.34 82.91,-121.57 173.63,-265.12 272.56,-430.75 160.28,-277.81 303.23,-578.42 428.74,-901.57 10.75,-26.76 24.14,-50.18 40,-70.1 16.16,-20.07 30.83,-34.17 44.21,-42.05l15.86 -12.07 20.07 -10.01c0,0 17.45,-4.06 52.21,-12.07 34.77,-8 61.36,-8.75 80.14,-2.03l1153.86 -8c104.27,-13.41 189.82,-10.04 256.57,10.04 66.76,20.05 108.19,42.03 124.2,66.01l23.84 39.97c61.53,171.08 -138.87,563.75 -601.07,1178.04 -64.13,85.54 -150.84,198.98 -260.49,340.63 -208.25,267.15 -328.53,442.13 -360.55,524.89 -45.37,109.5 -26.74,217.72 56.18,324.62 45.37,56.13 153.54,165.63 324.59,328.66l3.92 0 4.06 3.94 3.94 3.92 8 8c376.68,350.07 631.77,645.15 765.31,885.71 8.13,13.23 16.85,29.93 26.17,50.03 9.29,20.07 18.61,55.41 28.22,106.16 9.14,50.75 8.57,96.27 -2.06,136.27 -10.75,40 -44.08,76.82 -100.21,110.27 -56,33.3 -134.95,50.15 -236.48,50.15zm2450.53 -2172.87c0,-3284.55 -2662.67,-5947.22 -5947.22,-5947.22 -3284.55,0 -5947.22,2662.67 -5947.22,5947.22 0,3284.55 2662.67,5947.22 5947.22,5947.22 3284.55,0 5947.22,-2662.67 5947.22,-5947.22z"/>
 </g>
</svg>
