<?xml version="1.0" encoding="UTF-8"?>
<!DOCTYPE svg PUBLIC "-//W3C//DTD SVG 1.1//EN" "http://www.w3.org/Graphics/SVG/1.1/DTD/svg11.dtd">
<!-- Creator: CorelDRAW 2021.5 -->
<svg xmlns="http://www.w3.org/2000/svg" xml:space="preserve" width="183px" height="183px" version="1.1" style="shape-rendering:geometricPrecision; text-rendering:geometricPrecision; image-rendering:optimizeQuality; fill-rule:evenodd; clip-rule:evenodd"
viewBox="0 0 0.82 0.82"
 xmlns:xlink="http://www.w3.org/1999/xlink"
 xmlns:xodm="http://www.corel.com/coreldraw/odm/2003">
 <defs>
  <style type="text/css">
   <![CDATA[
    .fil0 {fill:#DBDBDB}
   ]]>
  </style>
 </defs>
 <g id="Слой_x0020_1">
  <metadata id="CorelCorpID_0Corel-Layer"/>
  <path class="fil0" d="M0.4 0.28c0.01,0 0.03,0 0.03,0 0.01,0 0.01,0 0.01,0 0,0 0.01,0.01 0.01,0.01 0,0 0,0 0,0.01 0,0 0,0 0,0.01 0,0 0,0.01 0,0.01 0,0 0,0.01 0,0.02 0,0.01 0,0.01 0,0.02 0,0 0,0 0,0.01 0,0 0,0.01 0,0.01 0,0 0,0.01 0,0.01 0,0 0,0.01 0,0.01 0,0 0.01,0 0.01,0.01 0,0 0,0 0,0 0,0 0.01,0 0.01,-0.01 0,0 0,0 0.01,0 0,-0.01 0.01,-0.01 0.01,-0.02 0.01,-0.01 0.01,-0.02 0.02,-0.03 0.01,-0.01 0.02,-0.03 0.02,-0.05 0,0 0.01,-0.01 0.01,-0.01 0,0 0,0 0,0l0 0 0 0c0,0 0,0 0,0 0.01,0 0.01,0 0.01,0l0.07 0c0.01,0 0.01,0 0.02,0 0,0 0,0 0,0l0.01 0.01c0,0.01 -0.01,0.03 -0.04,0.07 -0.01,0 -0.01,0.01 -0.02,0.02 -0.01,0.01 -0.02,0.03 -0.02,0.03 0,0.01 0,0.01 0,0.02 0.01,0 0.01,0.01 0.02,0.02l0 0 0 0 0 0 0.01 0c0.02,0.02 0.03,0.04 0.04,0.06 0,0 0,0 0,0 0,0 0,0 0.01,0.01 0,0 0,0 0,0 -0.01,0.01 -0.01,0.01 -0.01,0.01 0,0 -0.01,0 -0.02,0l-0.06 0.01c0,0 -0.01,0 -0.01,-0.01 -0.01,0 -0.01,0 -0.02,0l0 0c0,-0.01 -0.01,-0.01 -0.02,-0.02 0,-0.01 -0.01,-0.01 -0.01,-0.02 -0.01,0 -0.01,-0.01 -0.02,-0.01 0,-0.01 -0.01,-0.01 -0.01,-0.01 0,0 0,0 -0.01,0 0,0 0,0.01 0,0.01 0,0 0,0 0,0 -0.01,0.01 -0.01,0.01 -0.01,0.02 0,0 0,0.01 0,0.02 0,0 0,0 0,0 0,0.01 0,0.01 0,0.01l0 0c-0.01,0 -0.01,0 -0.02,0l-0.03 0c-0.01,0 -0.02,0 -0.03,0 -0.01,0 -0.02,-0.01 -0.03,-0.01 -0.01,-0.01 -0.02,-0.01 -0.03,-0.02 -0.01,0 -0.01,-0.01 -0.02,-0.01l0 -0.01c0,0 -0.01,0 -0.01,-0.01 0,0 -0.01,-0.01 -0.02,-0.02 -0.01,-0.01 -0.01,-0.02 -0.02,-0.04 -0.01,-0.01 -0.02,-0.03 -0.03,-0.05 -0.02,-0.02 -0.03,-0.04 -0.04,-0.07 0,0 0,0 0,0 0,0 0,-0.01 0,-0.01l0 0c0.01,0 0.01,0 0.02,0l0.07 0c0,0 0,0 0,0 0,0 0,0 0.01,0l0 0c0,0 0,0.01 0,0.01 0.01,0.01 0.01,0.02 0.01,0.03 0.01,0 0.01,0.01 0.01,0.02l0.01 0c0,0.01 0.01,0.02 0.01,0.03 0.01,0.01 0.01,0.01 0.01,0.02 0.01,0 0.01,0 0.01,0 0.01,0.01 0.01,0.01 0.01,0.01 0,0 0.01,0 0.01,0 0,0 0,0 0,0 0,-0.01 0,-0.01 0,-0.01 0,0 0.01,-0.01 0.01,-0.01 0,-0.01 0,-0.01 0,-0.02 0,-0.01 0,-0.02 0,-0.03 0,-0.01 0,-0.01 0,-0.02 0,-0.01 -0.01,-0.01 -0.01,-0.01l0 0c0,-0.01 -0.01,-0.01 -0.02,-0.02 0,0 0,0 0,0 0.01,0 0.01,-0.01 0.01,-0.01 0.01,0 0.03,0 0.06,0zm-0.4 0.1c0,0.09 0,0.13 0.04,0.21 0.02,0.04 0.06,0.09 0.08,0.12 0.01,0 0.01,0 0.02,0.01 0,0 0,0 0.01,0.01 0.11,0.09 0.29,0.12 0.42,0.06 0.06,-0.03 0.08,-0.05 0.12,-0.09 0.13,-0.13 0.16,-0.29 0.09,-0.46 -0.04,-0.09 -0.12,-0.16 -0.2,-0.2 -0.05,-0.02 -0.1,-0.03 -0.16,-0.04l-0.09 0.01c-0.03,0 -0.05,0.01 -0.08,0.02 -0.06,0.03 -0.13,0.08 -0.17,0.13 -0.04,0.06 -0.08,0.15 -0.08,0.22z"/>
 </g>
</svg>
